<?xml version="1.0" encoding="UTF-8"?><svg id="Layer_2" xmlns="http://www.w3.org/2000/svg" viewBox="0 0 549.32 213.72"><g id="Layer_1-2"><polygon points="25.77 171.89 25.77 212.18 15.76 212.18 15.76 171.89 1.02 171.89 1.02 163.56 39.98 163.56 39.98 171.89 25.77 171.89"/><polygon points="104.19 212.18 104.19 190.17 84.91 190.17 84.91 212.18 74.91 212.18 74.91 163.56 84.91 163.56 84.91 181.83 104.19 181.83 104.19 163.56 114.2 163.56 114.2 212.18 104.19 212.18"/><polygon points="151.17 212.18 151.17 163.56 186.4 163.56 186.4 171.89 161.18 171.89 161.18 182.96 184.46 182.96 184.46 191.3 161.18 191.3 161.18 203.85 187.53 203.85 187.53 212.18 151.17 212.18"/><path d="m250.14,212.18l-3.34-9.75h-18.01l-3.4,9.75h-10.21l16.95-48.63h11.53l16.68,48.63h-10.2m-12.21-36.96l-6.01,18.88h12.47l-6.46-18.88Z"/><polygon points="308.17 171.89 308.17 212.18 298.16 212.18 298.16 171.89 283.42 171.89 283.42 163.56 322.37 163.56 322.37 171.89 308.17 171.89"/><path d="m382.87,212.18c-.81-1.48-1.21-2.93-1.33-4.54-.14-2.4,0-6.27,0-9.81,0-3.27-2.55-4.87-6.01-4.87h-11.74v19.22h-10.01v-48.63h27.02c4.87,0,9.74,2.46,11.21,7.73.6,2.13,1.66,5.59.47,9.81-1.21,4.19-3.34,5.73-6.61,7.67,1.67,1.12,4.87,2.33,5.4,6.73.27,2.01.47,8.41.47,10.87.07,2.74.8,3.34,1.88,4.01v1.81h-10.75m-5.53-40.29h-13.55v12.74h13.69c2.33,0,6.53-2.47,5.93-7.27-.01-3.47-1.61-5.47-6.07-5.47Z"/><polygon points="427.09 212.18 427.09 163.56 462.3 163.56 462.3 171.89 437.09 171.89 437.09 182.96 460.37 182.96 460.37 191.3 437.09 191.3 437.09 203.85 463.44 203.85 463.44 212.18 427.09 212.18"/><path d="m522.73,178.36c.14-3.93-3.13-7.54-9.99-7.67-4.88-.06-8.48,1.59-8.81,5.59-.27,3.35.87,4.01,3.07,4.87,1.13,1.21,10.33,2.67,12.2,3.02,2.67.46,8.41,1.66,11.48,4.79,5.6,5.88,3,17.41-3.07,21.36-4.13,2.67-9.8,3.33-15.21,3.4-2.48.07-8.34-.8-11.94-3.4-4.34-3.13-6.47-7.94-6.81-12.54h9.74c0,1.27.4,3.27,2.07,5.07,2.2,2.27,5.81,2.93,9.15,2.8,3.33-.07,6.47-1.07,7.74-2.27,2.13-2,2.6-5.8.2-8.2-3.2-3.34-12.81-3.34-19.08-5.48-5.27-1.79-9.6-5.59-8.8-13.46.8-7.74,6.4-13.48,18.28-13.48,2.6,0,11.68.21,16.41,6.21,2.54,3.27,3.21,7.8,2.8,9.41h-9.43v-.02Z"/><path d="m539.77,208.41c0-2.63,2.14-4.77,4.79-4.77s4.76,2.14,4.76,4.77-2.12,4.79-4.76,4.79c-2.64,0-4.79-2.14-4.79-4.79m8.99,0c0-2.31-1.88-4.18-4.19-4.18s-4.2,1.88-4.2,4.18,1.87,4.22,4.2,4.22c2.31-.01,4.19-1.89,4.19-4.22m-1.82,2.67h-.78l-1.52-2.46h-1.21v2.46h-.65v-5.34h2.33c.44,0,.9.03,1.3.26.4.23.6.71.6,1.15,0,1.06-.74,1.44-1.69,1.47l1.62,2.46m-2.51-2.98c.76,0,1.92.12,1.92-.96,0-.84-.73-.93-1.39-.93h-1.52v1.89h.99Z"/><path d="m283.07,20.55C308.47-.95,335.1-.52,357.75,10.65c21.06,11.1,28.61,27.08,28.95,50.39v57.21s-.22,16.14-16.77,16.14-16.46-16.04-16.46-16.04l-.22-56.52s-.95-26.26-27.21-26.26-28.49,26.12-28.49,26.12v55.64s0,16.86-16.71,16.86-16.66-16.86-16.66-16.86v-55.48s-.51-26.28-28.41-26.28-27.05,26.67-27.05,26.67v57.06s-1.94,15.01-16.58,15.01-16.72-15.15-16.72-15.15l-.1-57.58c0-21.23,4.1-42.29,34.3-54.22,13.72-5.42,29.82-5.31,44.26-2.02,9.63,3.5,17.94,8.2,26.04,15.21l1.53,1.34,1.62-1.34Z"/><path d="m121.95,117.9c0-16.55-16.41-16.61-16.41-16.61h-59.14c-3.5,0-3.91-2.67-3.07-5.79,7.23-17.94,23.25-38.03,40.38-46.81,14.17-7.24,30.42-14.77,47.27-13.67,3.53.28,3.53,1.91,3.53,7.45v74.63s.85,16.95,17.26,16.95,15.55-16.39,15.55-16.39l-.07-93.71c.22-5.69-.82-11.16-4.21-15.54-2.52-2.29-5.91-4.7-9.74-5.24-20.14-1.67-39.47.15-58,5.55C60.95,18.73,28.12,46.64,11.27,79.85,5.54,91.16.22,106,0,119.68c.22,6.56,2.96,14.22,10.45,14.22l95.36.48s16.14.61,16.14-16.48Z"/><path d="m516.3,77.27c16.69,1.74,14.61,17.4,14.61,17.4-9.01,28.34-35.56,45.66-66.88,45.66-38.75,0-70.17-31.43-70.17-70.18S425.27,0,464.03,0c31.46,0,58.09,15.35,66.99,43.88,0,0,4.24,17.18-14.22,19.31h0c-13.67,0-15.78-11.15-15.78-11.15-5.29-15.31-19.82-20.93-36.93-20.93-21.57,0-39.05,17.48-39.05,39.05s17.48,39.07,39.05,39.07c16.9,0,31.28-7.5,36.73-22.52,0-.01,3.35-9.71,15.48-9.44h0Z"/></g></svg>