<svg xmlns="http://www.w3.org/2000/svg" viewBox="0 0 455.16 160"><g id="Layer_2" data-name="Layer 2"><g id="Layer_1-2" data-name="Layer 1"><path d="M191.14,43,206.25,1.14h6L227.42,43H222L217.84,31.5H200.76L196.56,43Zm11-16.35h14.32L209.31,6.45Z"/><path d="M243,43.53a15.13,15.13,0,0,1-4.41-.69,11.19,11.19,0,0,1-3.67-1.93,9.54,9.54,0,0,1-2.51-3.17,10.17,10.17,0,0,1-.92-4.42V13.07h5.36V32.81a6.42,6.42,0,0,0,1.8,4.74c1.2,1.22,3,1.82,5.44,1.82a7.89,7.89,0,0,0,5.3-1.72,6.37,6.37,0,0,0,2-5.12V13.07h5.32V43h-4.25l-.55-5.72a7.88,7.88,0,0,1-1.87,3.64,8,8,0,0,1-3.15,2A11.2,11.2,0,0,1,243,43.53Z"/><path d="M275.15,43.53a17,17,0,0,1-5.79-1,10.26,10.26,0,0,1-4.44-3,10,10,0,0,1-2.23-5.27h4.87A6.54,6.54,0,0,0,269,37.18a6.63,6.63,0,0,0,2.63,1.76,10.14,10.14,0,0,0,3.47.6A9.28,9.28,0,0,0,280,38.4a3.75,3.75,0,0,0,1.84-3.47,3.62,3.62,0,0,0-1-2.63,5.82,5.82,0,0,0-3-1.46l-6.2-1.52a13.77,13.77,0,0,1-5.78-2.72,6.47,6.47,0,0,1-2.17-5.17A8.15,8.15,0,0,1,265,16.8a8.59,8.59,0,0,1,3.81-3.15,15.31,15.31,0,0,1,6.32-1.16A13,13,0,0,1,283,14.68a7.75,7.75,0,0,1,3.1,6.41h-4.71a4.94,4.94,0,0,0-1.93-3.39A7,7,0,0,0,275,16.44a8.63,8.63,0,0,0-4.65,1.13,3.91,3.91,0,0,0-1.8,3.54,3,3,0,0,0,1.26,2.51,11.46,11.46,0,0,0,3.75,1.52l6,1.5A11.92,11.92,0,0,1,283,28.07a8.27,8.27,0,0,1,2.14,2,7.44,7.44,0,0,1,1.14,2.29,9,9,0,0,1,.34,2.29,8.14,8.14,0,0,1-1.37,4.74,8.8,8.8,0,0,1-3.92,3.06A16,16,0,0,1,275.15,43.53Z"/><path d="M308.06,17h-6.73V35.55a5.73,5.73,0,0,0,.35,2.34,1.59,1.59,0,0,0,1.13.94A9.8,9.8,0,0,0,305,39h3.26V42.6a8.32,8.32,0,0,1-1.65.35,25.91,25.91,0,0,1-2.77.15,11.11,11.11,0,0,1-4.8-.84,4.73,4.73,0,0,1-2.38-2.49,10.64,10.64,0,0,1-.68-4.05V17h-4.87v-3.9h5l1.3-8.7h3.92v8.68h6.73Z"/><path d="M315.18,43V13.07h5.08v5.75a9.24,9.24,0,0,1,2.1-3.54,8.93,8.93,0,0,1,3.1-2.1,9.6,9.6,0,0,1,3.63-.69,9.15,9.15,0,0,1,1.3.09,2.94,2.94,0,0,1,1,.28V18a3.68,3.68,0,0,0-1.11-.27,10.58,10.58,0,0,0-1.14-.07,12.35,12.35,0,0,0-3.37.22A7.48,7.48,0,0,0,323,19.05a5.62,5.62,0,0,0-1.86,2.12,7,7,0,0,0-.69,3.2V43Z"/><path d="M344.52,43.53a12.2,12.2,0,0,1-5.13-1,8.35,8.35,0,0,1-3.49-3,8.46,8.46,0,0,1-1.26-4.67c0-3.32,1.15-5.79,3.47-7.4s6-2.48,11.12-2.59l5.36-.15V22.39A5.86,5.86,0,0,0,352.94,18c-1.09-1.07-2.81-1.6-5.12-1.6a8.78,8.78,0,0,0-4.53,1.22,5.63,5.63,0,0,0-2.52,3.88h-4.72a9,9,0,0,1,1.65-4.93,9,9,0,0,1,4.12-3,17.07,17.07,0,0,1,6.25-1.05,16.84,16.84,0,0,1,6.5,1.09,8.16,8.16,0,0,1,3.88,3.23,10.13,10.13,0,0,1,1.28,5.25V43h-4.56l-.37-5.62a10.2,10.2,0,0,1-4.41,4.85A13,13,0,0,1,344.52,43.53Zm1.63-3.84a8.64,8.64,0,0,0,3-.56,11,11,0,0,0,2.74-1.48,7.94,7.94,0,0,0,2-2.1,4.67,4.67,0,0,0,.77-2.42V28l-4.46.09a24,24,0,0,0-5.7.68,6.87,6.87,0,0,0-3.45,2,5.3,5.3,0,0,0-1.13,3.56,4.75,4.75,0,0,0,1.75,3.92A6.71,6.71,0,0,0,346.15,39.69Z"/><path d="M375.4,43.33a9.61,9.61,0,0,1-3.92-.66,5.62,5.62,0,0,1-2.3-1.8,6.57,6.57,0,0,1-1.07-2.6,15.56,15.56,0,0,1-.28-3V0h5.27V34.74a5.48,5.48,0,0,0,.88,3.38,3.34,3.34,0,0,0,2.47,1.25l1.63,0v3.47c-.45.13-.9.24-1.4.34A6.85,6.85,0,0,1,375.4,43.33Z"/><path d="M390.08,1.18V6.73h-5.47V1.18ZM390,13.07V43h-5.16V13.07Z"/><path d="M407.05,43.53a12.15,12.15,0,0,1-5.12-1,8.23,8.23,0,0,1-3.49-3,8.38,8.38,0,0,1-1.27-4.67q0-5,3.47-7.4c2.32-1.62,6-2.48,11.13-2.59l5.35-.15V22.39A5.82,5.82,0,0,0,415.47,18q-1.64-1.61-5.12-1.6a8.77,8.77,0,0,0-4.52,1.22,5.64,5.64,0,0,0-2.53,3.88h-4.71a8.57,8.57,0,0,1,5.76-8,17.16,17.16,0,0,1,6.26-1.05,16.79,16.79,0,0,1,6.49,1.09A8.11,8.11,0,0,1,421,16.84a10,10,0,0,1,1.29,5.25V43H417.7l-.36-5.62a10.27,10.27,0,0,1-4.42,4.85A13,13,0,0,1,407.05,43.53Zm1.61-3.84a8.6,8.6,0,0,0,3-.56,10.83,10.83,0,0,0,2.74-1.48,7.78,7.78,0,0,0,2-2.1,4.58,4.58,0,0,0,.77-2.42V28l-4.45.09a24,24,0,0,0-5.7.68,6.83,6.83,0,0,0-3.45,2,5.25,5.25,0,0,0-1.14,3.56,4.73,4.73,0,0,0,1.76,3.92A6.74,6.74,0,0,0,408.66,39.69Z"/><path d="M430.13,43V13.07h5.19V17.4a8.65,8.65,0,0,1,2-2.33,9.88,9.88,0,0,1,3.13-1.76,12.25,12.25,0,0,1,4.24-.67,12,12,0,0,1,5.21,1.14,8.79,8.79,0,0,1,3.82,3.51,11.79,11.79,0,0,1,1.43,6.15V43H449.8V24c0-2.34-.62-4.07-1.84-5.19a6.73,6.73,0,0,0-4.76-1.69,11,11,0,0,0-3.79.64,6.77,6.77,0,0,0-2.87,2,5,5,0,0,0-1.09,3.3V43h-5.32Z"/><path d="M219.15,54.9h5.36V96.72h-4.78l-22.44-33v33h-5.36V54.9h5.12l22.1,32.49Z"/><path d="M241.93,97.29a12.15,12.15,0,0,1-5.12-1,7.9,7.9,0,0,1-4.76-7.63c0-3.33,1.16-5.79,3.47-7.4s6-2.48,11.12-2.59L252,78.5V76.12a5.84,5.84,0,0,0-1.65-4.35c-1.09-1.07-2.81-1.61-5.12-1.61a8.72,8.72,0,0,0-4.52,1.22,5.63,5.63,0,0,0-2.53,3.88h-4.72a8.56,8.56,0,0,1,5.77-8,17.38,17.38,0,0,1,6.26-1.05A17,17,0,0,1,252,67.33a8,8,0,0,1,3.88,3.24,10,10,0,0,1,1.28,5.25V96.69h-4.56l-.36-5.61a10.24,10.24,0,0,1-4.42,4.84A12.57,12.57,0,0,1,241.93,97.29Zm1.61-3.85a8.88,8.88,0,0,0,3-.56,10.54,10.54,0,0,0,2.72-1.48,7.72,7.72,0,0,0,2-2.12,4.7,4.7,0,0,0,.77-2.42V81.74l-4.46.08a23.91,23.91,0,0,0-5.7.69,6.78,6.78,0,0,0-3.45,2,5.3,5.3,0,0,0-1.13,3.56A4.75,4.75,0,0,0,239,92,6.78,6.78,0,0,0,243.54,93.44Z"/><path d="M278.94,70.72h-6.73V89.3a6,6,0,0,0,.34,2.34,1.6,1.6,0,0,0,1.14.94,9.64,9.64,0,0,0,2.18.19h3.26v3.58a7.49,7.49,0,0,1-1.65.34,19.71,19.71,0,0,1-2.76.15,11.1,11.1,0,0,1-4.8-.83,4.7,4.7,0,0,1-2.38-2.49,10.63,10.63,0,0,1-.69-4V70.7H262V66.8h5l1.31-8.7h3.92v8.68h6.73v3.94Z"/><path d="M291.93,54.93v5.55h-5.47V54.93Zm-.11,11.89v29.9h-5.17V66.82Z"/><path d="M312.52,97.29a14.36,14.36,0,0,1-7.22-1.77,11.91,11.91,0,0,1-4.8-5.21,18.8,18.8,0,0,1-1.72-8.42,20,20,0,0,1,1.59-8.21A12.21,12.21,0,0,1,305,68.19a13.62,13.62,0,0,1,7.48-2A13.84,13.84,0,0,1,319.7,68a12.09,12.09,0,0,1,4.74,5.32,19.68,19.68,0,0,1,1.67,8.53,19.56,19.56,0,0,1-1.55,8A12.09,12.09,0,0,1,320,95.34,13.62,13.62,0,0,1,312.52,97.29Zm0-4.22a7.49,7.49,0,0,0,4.54-1.35,8.17,8.17,0,0,0,2.81-3.9,17.08,17.08,0,0,0,1-6A18.43,18.43,0,0,0,320,76a8.62,8.62,0,0,0-2.68-4.07,7.28,7.28,0,0,0-4.78-1.5A7.57,7.57,0,0,0,308,71.79a8.22,8.22,0,0,0-2.85,3.88,17.06,17.06,0,0,0-1,6.11A17.75,17.75,0,0,0,305,87.5a8.59,8.59,0,0,0,2.72,4.07A7.33,7.33,0,0,0,312.52,93.07Z"/><path d="M332.56,96.72V66.82h5.18v4.33a8.91,8.91,0,0,1,2-2.34,9.68,9.68,0,0,1,3.13-1.75,12.21,12.21,0,0,1,4.24-.67,12,12,0,0,1,5.21,1.14A8.76,8.76,0,0,1,356.15,71a11.69,11.69,0,0,1,1.44,6.15V96.74h-5.36v-19c0-2.34-.62-4.07-1.84-5.19a6.68,6.68,0,0,0-4.76-1.69,11,11,0,0,0-3.79.64,6.69,6.69,0,0,0-2.87,2,5,5,0,0,0-1.1,3.3v20Z"/><path d="M373.51,97.29a12.15,12.15,0,0,1-5.12-1,8.3,8.3,0,0,1-3.49-3,8.38,8.38,0,0,1-1.27-4.67c0-3.33,1.16-5.79,3.47-7.4s6-2.48,11.13-2.59l5.35-.15V76.12a5.8,5.8,0,0,0-1.65-4.35q-1.64-1.6-5.12-1.61a8.77,8.77,0,0,0-4.52,1.22,5.66,5.66,0,0,0-2.53,3.88h-4.71a8.57,8.57,0,0,1,5.76-8,17.38,17.38,0,0,1,6.26-1.05,17,17,0,0,1,6.49,1.09,8,8,0,0,1,3.88,3.24,10,10,0,0,1,1.29,5.25V96.69h-4.57l-.36-5.61a10.24,10.24,0,0,1-4.42,4.84A12.54,12.54,0,0,1,373.51,97.29Zm1.63-3.85a8.84,8.84,0,0,0,3-.56,10.66,10.66,0,0,0,2.74-1.48,7.76,7.76,0,0,0,2-2.12,4.7,4.7,0,0,0,.77-2.42V81.74l-4.46.08a23.91,23.91,0,0,0-5.7.69,6.87,6.87,0,0,0-3.45,2,5.3,5.3,0,0,0-1.14,3.56A4.73,4.73,0,0,0,370.64,92,6.61,6.61,0,0,0,375.14,93.44Z"/><path d="M404.39,97.08a9.64,9.64,0,0,1-3.92-.66,5.59,5.59,0,0,1-2.29-1.8,6.42,6.42,0,0,1-1.07-2.6,14.81,14.81,0,0,1-.28-3V53.75h5.27V88.49a5.48,5.48,0,0,0,.88,3.38,3.31,3.31,0,0,0,2.46,1.25l1.63,0v3.47c-.45.13-.9.23-1.39.34A6.87,6.87,0,0,1,404.39,97.08Z"/><path d="M222.49,136a19.22,19.22,0,0,1-1.58,8.18,10.88,10.88,0,0,1-4.95,5.1,19.11,19.11,0,0,1-8.75,1.76,18.71,18.71,0,0,1-8.81-1.8,10.73,10.73,0,0,1-4.9-5.27,20.94,20.94,0,0,1-1.55-8.53V108.65h5.55v27.61c0,3.36.84,5.89,2.51,7.56s4.07,2.51,7.2,2.51a12,12,0,0,0,5.36-1.1,7.43,7.43,0,0,0,3.38-3.34,12.18,12.18,0,0,0,1.18-5.66V108.65h5.38V136Z"/><path d="M230.31,150.46V120.57h5.17v4.33a9.25,9.25,0,0,1,2-2.34,9.88,9.88,0,0,1,3.13-1.76,12.26,12.26,0,0,1,4.24-.66,11.6,11.6,0,0,1,5.21,1.14,8.73,8.73,0,0,1,3.82,3.51,12,12,0,0,1,1.43,6.15v19.54H250v-19a6.15,6.15,0,0,0-6.61-6.87,11,11,0,0,0-3.79.64,6.5,6.5,0,0,0-2.85,2,5,5,0,0,0-1.09,3.3v20Z"/><path d="M268.8,108.67v5.55h-5.46v-5.55Zm-.1,11.9v29.89h-5.17V120.57Z"/><path d="M300.86,120.57l-10.78,29.89h-4.86L274.4,120.57h5l7.95,23.19h.5l8-23.19Z"/><path d="M308.75,136.75a13.5,13.5,0,0,0,.94,5.12,7.76,7.76,0,0,0,7.7,5,9,9,0,0,0,4.92-1.32,6,6,0,0,0,2.64-3.84H330a10.36,10.36,0,0,1-2.42,5.12A11.76,11.76,0,0,1,323,150a14.79,14.79,0,0,1-5.55,1.05,14.54,14.54,0,0,1-7.37-1.82,12.74,12.74,0,0,1-5-5.23,17.29,17.29,0,0,1-1.8-8.19,19.47,19.47,0,0,1,1.63-8.27,12.54,12.54,0,0,1,4.69-5.55,13.35,13.35,0,0,1,7.42-2,13.19,13.19,0,0,1,7.13,1.82,11.52,11.52,0,0,1,4.44,5.12,18.71,18.71,0,0,1,1.52,7.84v2H308.75Zm0-3.6H325a11.93,11.93,0,0,0-.86-4.65,7.21,7.21,0,0,0-2.64-3.26,7.87,7.87,0,0,0-4.45-1.2,7.69,7.69,0,0,0-4.65,1.35,8.16,8.16,0,0,0-2.75,3.45A10,10,0,0,0,308.79,133.15Z"/><path d="M336.91,150.46V120.57H342v5.74a9.43,9.43,0,0,1,2.1-3.53,8.74,8.74,0,0,1,3.11-2.1,9.33,9.33,0,0,1,3.62-.69,7.88,7.88,0,0,1,1.3.09,2.52,2.52,0,0,1,1,.3v5.16a3.39,3.39,0,0,0-1.11-.28c-.45,0-.84-.06-1.14-.06a12.28,12.28,0,0,0-3.36.21,7.62,7.62,0,0,0-2.75,1.14,5.54,5.54,0,0,0-1.86,2.12,7,7,0,0,0-.69,3.19v18.58h-5.29Z"/><path d="M369.14,151a17,17,0,0,1-5.79-1,10.3,10.3,0,0,1-4.43-3.05,10,10,0,0,1-2.23-5.27h4.86A6.43,6.43,0,0,0,363,144.7a6.74,6.74,0,0,0,2.64,1.76,10.1,10.1,0,0,0,3.47.6,9.08,9.08,0,0,0,4.86-1.14,3.75,3.75,0,0,0,1.85-3.47,3.67,3.67,0,0,0-1-2.64,5.9,5.9,0,0,0-3-1.45l-6.19-1.55a13.81,13.81,0,0,1-5.79-2.72,6.48,6.48,0,0,1-2.16-5.16A8.14,8.14,0,0,1,359,124.3a8.62,8.62,0,0,1,3.82-3.15A15.28,15.28,0,0,1,369.1,120a13,13,0,0,1,7.84,2.19,7.76,7.76,0,0,1,3.11,6.4h-4.72a4.89,4.89,0,0,0-1.93-3.38,7,7,0,0,0-4.37-1.27,8.65,8.65,0,0,0-4.65,1.14,3.89,3.89,0,0,0-1.8,3.53,2.93,2.93,0,0,0,1.27,2.51,11.16,11.16,0,0,0,3.75,1.52l6,1.5a11.49,11.49,0,0,1,3.43,1.46,8.59,8.59,0,0,1,2.14,2,7.35,7.35,0,0,1,1.13,2.3,8.61,8.61,0,0,1,.35,2.29,8.14,8.14,0,0,1-1.37,4.74,9,9,0,0,1-3.93,3.06A16,16,0,0,1,369.14,151Z"/><path d="M393.42,108.67v5.55H388v-5.55Zm-.11,11.9v29.89h-5.16V120.57Z"/><path d="M417.14,124.47h-6.72v18.58a5.71,5.71,0,0,0,.34,2.33,1.58,1.58,0,0,0,1.13,1,9.8,9.8,0,0,0,2.19.19h3.26v3.58a7.62,7.62,0,0,1-1.65.34,19.77,19.77,0,0,1-2.77.15,11.31,11.31,0,0,1-4.8-.83,4.77,4.77,0,0,1-2.38-2.49,10.64,10.64,0,0,1-.68-4.05V124.45h-4.87v-3.9h5l1.3-8.7h3.93v8.68h6.72Z"/><path d="M427.39,160a13,13,0,0,1-4.59-.75v-3.47l3.05.06a9.41,9.41,0,0,0,2.76-.23,5.35,5.35,0,0,0,1.76-.77,3.67,3.67,0,0,0,1-1.1c.23-.4.42-.79.6-1.15l1.05-2.83-11.68-29.17h5.4l8.8,23.06,8.77-23.06h5.23L437,152.74a14.71,14.71,0,0,1-2.6,4.41,8.15,8.15,0,0,1-3.17,2.23A11.49,11.49,0,0,1,427.39,160Z"/><path d="M124.17,4.31c.26,5.63,1.09,25.09,1.09,48.92,0,29-1.91,44.49-7,57.09a40.14,40.14,0,0,1-10.15,15c-4.1,3.82-9.52,7.57-18.69,12.93a104.43,104.43,0,0,1-17.15,8.42,23.87,23.87,0,0,1-8.16,1.6,23.87,23.87,0,0,1-8.17-1.6,105.26,105.26,0,0,1-17.14-8.42c-9.19-5.36-14.59-9.09-18.69-12.93a40.12,40.12,0,0,1-10.16-15c-5.12-12.6-7-28.07-7-57.09C2.94,29.42,3.77,10,4,4.33l120.14,0M2.59,1.39a1.51,1.51,0,0,0-.94.32,1.38,1.38,0,0,0-.47,1C1.18,2.87,0,24.92,0,53.21c0,29.45,2,45.2,7.22,58.19,5.34,13.18,13.61,19.67,30.07,29.27,15.77,9.19,22.37,10.41,26.77,10.41s11-1.24,26.76-10.41c16.48-9.6,24.73-16.09,30.07-29.27,5.27-13,7.22-28.74,7.22-58.19,0-28.29-1.16-50.34-1.18-50.55a1.2,1.2,0,0,0-.4-1,1.47,1.47,0,0,0-1-.32Z"/><polygon points="101.11 37.03 99.74 33.15 98.37 36.97 94.27 37.12 97.53 39.65 96.35 43.55 99.72 41.23 103.1 43.55 101.94 39.6 105.2 37.12 101.11 37.03"/><polygon points="96.33 58.98 99.44 61.85 99.14 57.63 103.32 56.98 99.82 54.6 101.92 50.94 97.89 52.18 96.33 48.24 94.79 52.18 90.74 50.94 92.84 54.6 89.36 56.98 93.54 57.63 93.22 61.85 96.33 58.98"/><polygon points="113.2 35.79 116.3 38.66 115.98 34.44 120.16 33.8 116.69 31.42 118.79 27.75 114.74 29 113.2 25.05 111.63 29 107.6 27.75 109.7 31.42 106.21 33.8 110.39 34.44 110.09 38.66 113.2 35.79"/><polygon points="98.11 19.97 101.22 22.84 100.89 18.62 105.07 18 101.6 15.6 103.7 11.94 99.65 13.18 98.11 9.24 96.57 13.18 92.52 11.94 94.62 15.6 91.12 18 95.3 18.62 95 22.84 98.11 19.97"/><polygon points="80.3 33.69 83.41 36.54 83.09 32.34 87.27 31.7 83.77 29.32 85.89 25.65 81.84 26.87 80.3 22.95 78.74 26.87 74.71 25.65 76.81 29.32 73.31 31.7 77.49 32.34 77.19 36.54 80.3 33.69"/><path d="M96.48,69c-17.1-8.17-28.59-14-32.72-14s-15,5.81-32.06,14S8.77,78.93,8.77,82.51,13,84.39,14.23,84s44.9-14.49,49.53-14.49S112.66,83.64,114,84s5.46,2.08,5.46-1.5S113.58,77.19,96.48,69Z"/><path d="M106.32,95.73C98.9,98.22,93,103.64,84.8,102.09c-7.2-1.35-13.18-7.56-20.72-7.47-8.28.1-14.53,7.22-22.63,7.9s-14.19-5.78-21.63-7.3a16.86,16.86,0,0,0-9.13.72,76.6,76.6,0,0,0,2,7.72,15.76,15.76,0,0,1,7.13-.15c7.44,1.52,13.65,8,21.63,7.31s14.35-7.8,22.63-7.91c7.56-.09,13.54,6.13,20.72,7.48,8.21,1.54,14.1-3.88,21.52-6.37a15.84,15.84,0,0,1,9.08-.32,77.09,77.09,0,0,0,2-7.71A16.54,16.54,0,0,0,106.32,95.73Z"/><path d="M106.32,112.34C98.9,114.82,93,120.25,84.8,118.7c-7.2-1.35-13.18-7.56-20.72-7.48-8.28.11-14.53,7.23-22.63,7.91s-14.19-5.78-21.63-7.31a16.06,16.06,0,0,0-4-.3,35.73,35.73,0,0,0,6.35,9,1.1,1.1,0,0,0,.25.2c.84.4,5.17,2.5,7.31,3.57,3.67,1.85,7.5,3.54,11.73,3.2,8.12-.69,14.35-7.8,22.63-7.91,7.56-.09,13.54,6.13,20.72,7.48,5,.94,9.26-.75,13.41-2.77,2.17-1,6.8-3.34,7.66-3.77a.53.53,0,0,0,.25-.19,35.85,35.85,0,0,0,6.17-8.74A14.45,14.45,0,0,0,106.32,112.34Z"/><path d="M43.68,135.38c3.3,1.86,6.23,3.38,8.85,4.56,3.66-1.91,7.35-3.77,11.55-3.81S72,138,75.69,139.9c2.64-1.22,5.6-2.74,8.94-4.63-7.12-1.44-13-7.52-20.53-7.44S50.75,133.77,43.68,135.38Z"/><path d="M90.82,85.46C82.06,82.79,76.08,81.05,72,79.89c-3.91-1.09-5.73-1.5-6.93-1.8-.36-.08-1-.21-1.15-.23s-.65.13-1.14.23c-1,.24-2.57.62-5,1.29-4,1.11-10.52,3-20.81,6.19q-4.95,1.55-11.14,3.5c5.05,2.4,9.9,5.63,15.66,5.16,8.12-.69,14.36-7.8,22.63-7.91,7.57-.08,13.55,6.13,20.73,7.48,6.68,1.27,11.83-2.1,17.53-4.73C98.09,87.69,94.23,86.51,90.82,85.46Z"/></g></g></svg>