<?xml version="1.0" encoding="UTF-8"?><svg id="Layer_2" xmlns="http://www.w3.org/2000/svg" xmlns:xlink="http://www.w3.org/1999/xlink" viewBox="0 0 223.34 41.55"><defs><style>.cls-1{fill:url("#linear-gradient-2");}.cls-2{fill:url("#linear-gradient-3");}.cls-3{fill:url("#linear-gradient");}.cls-4{fill:url("#linear-gradient-4");}</style><linearGradient id="linear-gradient" x1="269.44" y1="-856.91" x2="239.68" y2="-858.99" gradientTransform="translate(-240 -842.05) scale(1 -1)" gradientUnits="userSpaceOnUse"><stop offset="0" stop-color="#522e91"/><stop offset=".12" stop-color="#522e91"/><stop offset=".12" stop-color="#522e91"/><stop offset=".23" stop-color="#604099"/><stop offset=".44" stop-color="#7a61aa"/><stop offset=".62" stop-color="#8d79b7"/><stop offset=".78" stop-color="#9b88c0"/><stop offset=".87" stop-color="#a08ec3"/><stop offset="1" stop-color="#917dba"/></linearGradient><linearGradient id="linear-gradient-2" x1="-1362.5" y1="131.92" x2="-1392.26" y2="129.84" gradientTransform="translate(146.81 -1350.43) rotate(-90) scale(1 -1)" xlink:href="#linear-gradient"/><linearGradient id="linear-gradient-3" x1="-373.63" y1="1763.92" x2="-403.41" y2="1761.84" gradientTransform="translate(-361.57 -1737.24) rotate(-180) scale(1 -1)"; xlink:href="#linear-gradient"/><linearGradient id="linear-gradient-4" x1="1258.3" y1="775.01" x2="1228.55" y2="772.93" gradientTransform="translate(-748.38 -1228.86) rotate(90) scale(1 -1)"; xlink:href="#linear-gradient"/></defs><g id="Layer_1-2"><g id="Layer_2-2"><g id="Layer_1-2"><g id="logo"><path d="m86.63,29.39c-2,0-2.81-.9-2.81-2.34,0-1.66.93-2.52,3.36-2.52h3.2v1c.17,1.96-1.28,3.68-3.24,3.85-.17.01-.34.02-.51,0Zm-5.55-2.07c0,2,1.14,4.08,4.72,4.08,1.75.09,3.44-.69,4.51-2.08l.35,1.76h2.24v-9.45c0-4-2.43-4.76-5.3-4.76-2.18,0-5,.63-5.73,3.89h2.75c.36-1.21,1.18-1.89,2.94-1.89,1.44,0,2.82.52,2.82,2.81v1h-3c-3.65,0-6.26,1.21-6.26,4.67l-.04-.03Zm-7.33,3.76h2.59v-8.69c-.15-1.46.91-2.77,2.37-2.92.16-.02.32-.02.48,0,.56,0,1.11.03,1.66.12v-2.52c-.44-.14-.91-.21-1.37-.19-1.35,0-2.57.78-3.14,2l-.36-1.66h-2.23v13.87Zm91.82,0h2.59v-8.69c-.16-1.45.89-2.76,2.35-2.92.16-.02.31-.02.47,0,.56,0,1.11.03,1.66.12v-2.52c-.44-.14-.9-.21-1.36-.19-1.34,0-2.56.78-3.12,2l-.32-1.7h-2.27v13.91Zm-48.68-11.6v-2.27h-2.83v-4l-2.66.41v3.54h-2v2.27h2v8.82c0,2,.74,3.17,3.65,3.17.73,0,1.46-.11,2.17-.29v-2c-.52.14-1.06.2-1.6.19-1.22,0-1.56-.58-1.56-1.85v-7.99h2.83Zm78.1,0v-2.27h-2.84v-4l-2.66.41v3.54h-2v2.27h2v8.82c0,2,.74,3.17,3.65,3.17.74,0,1.47-.11,2.18-.29v-2c-.52.14-1.06.2-1.6.19-1.22,0-1.57-.58-1.57-1.85v-7.99h2.84Zm-38.58,9.81c-2.49,0-4.07-1.73-4.07-5.17s1.66-5.15,4.12-5.15,4,1.83,4,5.31-1.54,5-4,5h-.05Zm46.32,0c-2.49,0-4.08-1.73-4.08-5.17s1.66-5.15,4.11-5.15,4,1.83,4,5.31-1.54,5-4,5h-.03Zm-28.28,1.79h2.53v-8c0-2.29,1-3.9,3.39-3.9,2.23,0,2.93,1,2.93,3.29v8.6h2.59v-9.32c0-3.2-1.34-4.86-4.37-4.86-1.77-.11-3.47.67-4.54,2.08l-.32-1.76h-2.19v13.87h-.02Zm-78.2,0h2.53v-8c0-2.29,1-3.9,3.39-3.9,2.24,0,2.94,1,2.94,3.29v8.6h2.59v-9.32c0-3.2-1.34-4.86-4.38-4.86-1.77-.11-3.47.67-4.54,2.08l-.32-1.76h-2.21s0,13.87,0,13.87Zm115.66,0h2.51v-8c0-2.29,1-3.9,3.39-3.9,2.24,0,2.94,1,2.94,3.29v8.6h2.59v-9.32c0-3.2-1.34-4.86-4.38-4.86-1.77-.11-3.47.67-4.54,2.08l-.32-1.76h-2.19v13.87h0Zm-77.32-18.63v-2.23h-14.76v2.23h6v18.63h2.78V12.45h5.98Zm1.39,18.63h2.54v-8c0-2.29,1-3.9,3.38-3.9,2.23,0,2.94,1,2.94,3.29v8.6h2.59v-9.32c0-3.2-1.34-4.86-4.37-4.86-1.77-.11-3.47.67-4.54,2.08v-8.75h-2.54v20.86Zm-72.61-8.28h4.92v4.64c-1.62,1.24-3.62,1.89-5.66,1.83-4.63,0-7.28-3-7.28-8.28,0-5.59,2.84-8.69,7.22-8.69,2.42-.02,4.74.95,6.41,2.69l1.64-1.86c-2.05-2.08-4.86-3.22-7.77-3.16-6.55,0-10.42,4.56-10.42,10.95s3.23,10.62,10.23,10.62c3.1.05,6.09-1.13,8.32-3.29v-7.58h-7.61v2.13Zm93.24-5.93c-4.59,0-7,3.15-7,7.35s2.4,7.18,6.67,7.18,6.93-2.81,6.93-7.26-2.45-7.27-6.6-7.27Zm46.31,0c-4.6,0-7,3.15-7,7.35s2.41,7.18,6.69,7.18,6.94-2.81,6.94-7.26-2.48-7.27-6.63-7.27Z"/><path class="cls-3" d="m20.74,12.74c3.39,1.16,6.14,3.68,7.62,6.94.25.48.33,1.03.23,1.56.06-.16.12-.32.17-.49C32.96,7.56,18.09-1.25,10.55,2.67l-.43.24C.46,8.68-2.85,21.1,2.66,30.91-1.29,23.41,7.55,8.54,20.74,12.74Z"/><path class="cls-1" d="m12.73,20.75c1.17-3.38,3.68-6.13,6.94-7.62.48-.26,1.03-.35,1.56-.26-.16-.07-.32-.12-.49-.17C7.55,8.5-1.26,23.37,2.66,30.91c.09.15.16.3.25.43,5.75,9.73,18.22,13.08,28.07,7.53-7.58,3.92-22.45-4.92-18.25-18.12Z"/><path class="cls-2" d="m20.74,28.76c-3.37-1.16-6.12-3.65-7.62-6.89-.25-.48-.32-1.03-.22-1.56-.06.17-.12.32-.17.49-4.2,13.14,10.67,21.99,18.25,18.07.14-.09.28-.17.43-.24,9.65-5.78,12.96-18.19,7.45-28,3.93,7.46-4.88,22.33-18.12,18.13Z"/><path class="cls-4" d="m28.76,20.75c-1.18,3.38-3.68,6.13-6.93,7.62-.49.25-1.04.33-1.58.23l.49.16c13.2,4.2,22-10.66,18.08-18.21-.08-.14-.15-.28-.24-.43C32.82.45,20.39-2.85,10.58,2.68c7.51-3.97,22.4,4.88,18.18,18.07Z"/></g></g></g></g></svg>