<svg xmlns="http://www.w3.org/2000/svg" viewBox="0 0 764.91 147.15"><g id="a"/><g id="b"><g id="c"><g id="d"><g id="e"><polygon points="223.01 100.04 213.01 100.04 213.01 64.19 198.42 90.87 192.58 90.87 177.58 64.19 177.58 100.04 167.57 100.04 167.57 45.44 177.58 45.44 195.5 77.12 213.01 45.44 223.01 45.44 223.01 100.04"/><path d="M283,98.79c-5.84,1.62-11.87,2.46-17.93,2.5-9.17,0-16.67-2.91-22.51-8.33-5.41-5.24-8.42-12.47-8.33-20-.21-7.77,2.99-15.24,8.77-20.44,5.84-5.42,12.92-7.92,22.09-7.92,5.19-.09,10.38,.48,15.43,1.67l-1.23,8.73c-4.27-.73-8.6-1.15-12.93-1.25-6.66,0-12.08,1.67-15.84,5s-5.41,7.95-5.41,14.25c-.18,5.14,1.78,10.12,5.41,13.75,3.82,3.62,8.92,5.56,14.18,5.42,2.93-.07,5.86-.35,8.75-.83v-18.34h9.55v25.79Z"/><polygon points="351.82 100.04 341.81 100.04 341.81 64.19 326.81 90.87 320.97 90.87 306.38 64.19 306.38 100.04 296.38 100.04 296.38 45.44 306.38 45.44 324.31 77.12 341.81 45.44 351.82 45.44 351.82 100.04"/><path d="M422.26,62.53c.12-4.71-3.6-8.64-8.31-8.76-.15,0-.29,0-.44,0h-16.26v17.09h16.26c2.34,.07,4.6-.84,6.25-2.5,1.72-1.43,2.65-3.6,2.5-5.83m16.26,37.47h-12.92l-15-20.84h-13.35v20.84h-10.42V45.44h28.35c4.8-.14,9.46,1.67,12.92,5,3.31,3.13,5.13,7.53,5,12.09,.13,3.3-.91,6.55-2.92,9.17-1.92,2.87-4.69,5.07-7.92,6.3l16.26,22Z"/><polygon points="486.46 100.04 447.27 100.04 447.27 45.44 486.46 45.44 486.46 54.61 457.7 54.61 457.7 67.53 484.79 67.53 484.79 76.7 457.7 76.7 457.7 91.29 486.46 91.29 486.46 100.04"/><path d="M540.65,85.45c0,5-2.09,8.76-6.25,11.68s-9.59,4.16-16.26,4.16c-7.74,.06-15.41-1.5-22.51-4.58l2.5-8.34c6.42,2.34,13.17,3.61,20,3.75,8.34,0,12.09-2.08,12.09-6.67-.06-1.95-1.18-3.71-2.92-4.58-3.63-1.82-7.39-3.35-11.26-4.59-7.08-2.5-11.67-5-14.17-7.08-2.92-2.5-4.17-5.84-4.17-10.42,0-9.59,7.09-14.18,21.68-14.18,6.62-.07,13.23,.77,19.62,2.5l-1.67,8.34c-5.89-1.29-11.89-1.98-17.92-2.08-4.17,0-7.09,.41-9.17,1.25-1.64,.71-2.65,2.39-2.5,4.17,0,2.08,1.25,3.33,3.33,5,1.67,.83,5.42,2.5,12.09,5,7.09,2.5,11.26,5,13.34,6.67,2.92,2.08,4.17,5.42,4.17,10"/><path d="M591.92,73c.08-4.98-1.54-9.83-4.59-13.76-2.91-3.75-7.08-5.42-12.5-5.42-5,0-9.17,1.67-12.09,5.42-3.11,3.9-4.74,8.77-4.58,13.76-.16,4.86,1.47,9.6,4.58,13.34,2.92,3.75,7.09,5.42,12.51,5.42,4.77,.17,9.36-1.82,12.5-5.42,2.92-3.34,4.17-7.92,4.17-13.34m10.42,0c0,7.92-2.5,14.59-7.92,20s-11.67,8.33-19.59,8.33-14.17-2.95-19.59-8.33-7.92-12.09-7.92-20,2.5-14.59,7.92-20,11.67-8.34,19.59-8.34,14.17,2.92,19.59,8.34,7.92,12.09,7.92,20"/><path d="M649,62.53c.12-4.72-3.61-8.64-8.33-8.76-.14,0-.28,0-.43,0h-16.24v17.09h16.25c2.34,.07,4.61-.84,6.26-2.5,1.72-1.43,2.65-3.6,2.5-5.83m16.28,37.47h-12.93l-15-20.84h-13.36v20.84h-10.4V45.44h28.34c4.8-.14,9.46,1.67,12.92,5,3.31,3.13,5.13,7.53,5,12.09,.14,3.3-.87,6.54-2.86,9.17-1.95,2.88-4.74,5.08-8,6.3l16.29,22Z"/><polygon points="714.06 54.61 696.13 54.61 696.13 100.04 685.71 100.04 685.71 54.61 667.37 54.61 667.37 45.44 714.06 45.44 714.06 54.61"/><path d="M764.91,85.45c.12,4.72-2.26,9.16-6.25,11.68-4.17,2.91-9.59,4.16-16.26,4.16-7.74,.06-15.41-1.5-22.51-4.58l2.5-8.34c6.42,2.34,13.17,3.61,20,3.75,8.34,0,12.09-2.08,12.09-6.67-.05-1.95-1.18-3.71-2.92-4.58-3.63-1.82-7.39-3.35-11.25-4.59-7.09-2.5-11.67-5-14.18-7.08-2.91-2.5-4.16-5.84-4.16-10.42,0-9.59,7.08-14.18,21.67-14.18,6.61-.07,13.21,.77,19.59,2.5l-1.66,8.34c-5.89-1.28-11.9-1.98-17.93-2.08-4.17,0-7.08,.41-9.17,1.25-1.64,.71-2.65,2.39-2.5,4.17,0,2.08,1.25,3.33,3.34,5,1.66,.83,5.41,2.5,12.08,5,7.09,2.5,11.26,5,13.34,6.67,2.92,2.08,4.17,5.42,4.17,10"/><path d="M7.5,60.44c0,12.92,2.09,25,8.76,35v-8.74c0-10.83,8.75-18.34,17.5-23.34-9.17,3.34-19.17,1.25-26.26-2.92"/><path d="M15,51.27h-2.91c-.42-1.67,4.17-4.58,5.42-2.5l-2.51,2.5Zm-9.16-1.27c2.85,1.8,6.24,2.54,9.58,2.09,2.92,2.08,7.09-3.76,11.26-3.76,6.25-.83,14.17-1.66,18.34,3.76l-2.09-4.17c-5.44-.52-10.71-2.23-15.42-5-9.17-4.15-13.75,9.19-21.67,7.08"/><path d="M.42,28.76c2.83,.96,5.77,1.52,8.75,1.67,6.25-2.5,7.92-7.5,5.42-14.17C11.28,11.36,6.2,7.93,.42,6.67V28.76Z"/><path d="M42.1,147.15c1.07-1.02,2.04-2.14,2.9-3.34,16.67-21.67-15.84-34.18-15-55,.84-8.34,5.42-14.59,10.84-21.26l-.42-.42c-5,5-7.08,8.34-10.42,13.34-10,20.43,4.17,48.77-10.42,66.28l22.52,.4Z"/><path d="M109.63,73.78c.02,28.78-13.39,55.91-36.27,73.37h73.37V.42H73.36c22.95,17.39,36.39,44.56,36.27,73.36"/><path d="M.42,147.15H12.92l2.92-2.92c17.09-23.35-3.33-39.6-15.84-57.94l.42,60.86Z"/><path d="M35,.42H.42V2.92c3.45,.53,6.81,1.51,10,2.92,7.09,4.16,12.51,10.83,11.67,19.16l15.43-1.67c2.08-5,2.91-12.92,.83-17.09-.67-2.16-1.82-4.15-3.35-5.82"/><path d="M42.1,.42c3.34,4.58,3.34,10.42,3.75,15,6.26-4.58,13.76-7.5,21.68-5.42-5.42-4.16-9.17-7.5-15.84-10l-9.59,.42Z"/><path d="M73,75l-1.3,3.37-1.7-4.17c-3.75,.83-7.5,2.08-9.59,6.25-.41,1.25,.42,3.34-.83,4.17-2.5-.42-1.25-4.59-1.25-7.09,2.92-2.92,10.84-9.17,13.75-6.67,.84,.42,1.26,2.5,.84,4.17m-16.65,29.97c-2.08-1.66-1.25-4.58-1.25-6.66l1.25-1.26c2.09,6.67,7.51-1.25,11.68-.41,2.05-.8,1.25-3.67,3.33-3.3,3.34,10.42-9.17,8.34-15,11.67m30,1.26c1.72-13.76,.42-28.3-9.58-37.94-2.08-.41-5,.84-6.67-1.25-4.58,4.17-10.42,5.89-14.59,10.42-4.58,1.25-9.17-1.66-13.76-2.5v-1.67c-6.25,4.17-4.58,12.51-5.83,18.76,1.67,7.09,9.59,10,14.59,14.18,7.92,1.25,15-2.09,21.67-4.59,1.26,1.25,2.92,2.08,2.09,3.75-5.42,7.5-13.34,10.84-22.51,10,5.42,10.42,1.67,22.51-4.17,31.68h5.42c16.67-7.5,32.06-19.14,33.35-40.84"/><path d="M98.38,50c-4.59-15.84-18.76-37.1-37.52-35.85-7.09,.42-14.17,5.84-16.67,10,5.37,3.24,10.39,7.01,15,11.25-.41,1.67,.84,3.75-1.25,4.59-2.5-2.09-4.58-7.09-7.92-5.42,2.5,5.42,9.17,5.83,14.17,7.08,2.09,2.09,1.25,5.42,5.42,3.76,2.09,.41,2.92,2.91,3.34,4.58-3.34,6.25-12.51,2.09-17.51,3.34,4.17,1.67,8.75,2.11,12.56,4.61s5-3.33,6.67-5.42c6.66,1.67,2.91,8.76,5.83,12.51,14.17,14.59,11.26,40.43,4.17,57.11,19.54-17.14,17.87-56.28,13.71-72.14"/></g></g></g></g></svg>