<?xml version="1.0" encoding="UTF-8"?><svg id="Layer_2" xmlns="http://www.w3.org/2000/svg" viewBox="0 0 461.13 160"><g id="Logo"><path d="m62.25,138.88c21.8,0,38.65-16.86,38.65-41.8V0h23.59v157.31h-23.37v-14.61c-10.56,11.01-25.16,17.3-41.57,17.3C25.84,160,0,135.51,0,98.44V.03h23.59v97.05c0,25.39,16.63,41.8,38.65,41.8"/><path d="m142.02,0h22.69v57.3c10.69-10.95,25.36-17.11,40.67-17.08,33.71,0,60.22,26.74,60.22,60s-26.51,59.77-60.22,59.77c-15.38.04-30.13-6.11-40.92-17.08v14.38h-22.48L142.02,0Zm61.8,140c21.57,0,39.33-17.76,39.33-39.78s-17.75-39.78-39.33-39.78-39.55,17.53-39.55,39.78,17.53,39.78,39.55,39.78"/><path d="m333.48,40.45c33.03,0,57.3,25.39,57.3,59.55v7.42h-93.25c3.15,18.65,18.65,32.58,37.97,32.58,13.27,0,24.5-5.4,33.03-16.86l16.41,12.13c-11.46,15.28-28.54,24.49-49.44,24.49-34.38,0-60.9-25.62-60.9-59.77,0-32.36,25.39-59.55,58.88-59.55m-35.51,48.99h69.89c-3.82-17.53-17.98-29.22-34.83-29.22s-31.01,11.68-35.06,29.22"/><path d="m451.68,62.92c-14.83,0-25.62,11.46-25.62,29.21v65.17h-22.7V42.7h22.48v14.17c5.62-9.22,14.83-15.06,27.42-15.06h7.86v21.12h-9.45Z"/></g></svg>